<?xml version="1.0" encoding="UTF-8" standalone="no"?>
<!-- Created with Inkscape (http://www.inkscape.org/) -->
<svg xmlns:inkscape="http://www.inkscape.org/namespaces/inkscape" xmlns:sodipodi="http://sodipodi.sourceforge.net/DTD/sodipodi-0.dtd" xmlns="http://www.w3.org/2000/svg" xmlns:svg="http://www.w3.org/2000/svg" width="5000" height="2600" viewBox="0 0 1322.9166 687.91666" version="1.1" id="svg1" xml:space="preserve" inkscape:export-filename="nautil-logo-czarne.png" inkscape:export-xdpi="96" inkscape:export-ydpi="96">
  <defs id="defs1"></defs>
  <g inkscape:label="Warstwa 1" inkscape:groupmode="layer" id="layer1">
    <path style="fill:#000000" d="m 403.86392,669.05834 c -18.53616,-1.5922 -34.94302,-7.7505 -47.625,-17.8761 -2.89275,-2.3097 -8.69804,-8.1008 -10.8351,-10.8088 -7.42873,-9.4131 -12.10846,-20.4448 -14.04417,-33.1068 -0.72025,-4.7114 -0.99105,-14.2429 -0.54073,-19.0325 0.94254,-10.0249 3.12139,-18.2956 6.75923,-25.6575 7.697,-15.5763 21.08392,-28.07 40.09202,-37.4167 11.18328,-5.4991 26.08044,-10.2786 40.02706,-12.842 13.47059,-2.4759 26.24013,-3.3805 56.612,-4.0105 l 7.87136,-0.1632 -0.007,-1.6234 c -0.0211,-4.9185 -0.55643,-15.7925 -0.90698,-18.4244 -1.08659,-8.1578 -3.79987,-13.8012 -8.59408,-17.8749 -6.21791,-5.2835 -13.73941,-7.7664 -22.50655,-7.4296 -8.70673,0.3346 -15.89711,3.3329 -21.39994,8.9237 -3.80735,3.8683 -5.71758,8.1869 -8.75531,19.7942 l -1.48189,5.6623 -21.55383,0.062 c -11.8546,0.034 -29.87711,0.1529 -40.05002,0.2641 l -18.4962,0.2022 0.18599,-2.8837 c 1.06794,-16.558 6.44455,-33.1884 14.66142,-45.34928 8.02817,-11.88164 20.7532,-22.51474 36.19287,-30.24295 20.33947,-10.18076 46.04992,-15.07316 73.39691,-13.96659 13.17393,0.53307 18.81351,1.01653 26.72292,2.29083 22.79981,3.67333 41.64335,12.46154 54.37187,25.35782 5.38499,5.45597 9.15818,10.82846 12.94121,18.42647 5.20281,10.4496 8.20384,21.7886 9.13475,34.5146 1.15225,15.7518 1.36971,28.7615 1.28473,76.8615 -0.0791,44.7584 -0.0183,48.7352 0.99396,65.0875 0.74434,12.0238 2.35059,27.8486 3.45096,33.9989 l 0.14201,0.7938 h -41.5566 c -22.85614,0 -41.55661,-0.087 -41.55662,-0.1925 -3e-5,-1.498 -3.99937,-26.8059 -5.13328,-32.4836 l -0.60767,-3.0427 -0.73099,1.5875 c -0.40204,0.8732 -1.77093,4.7427 -3.04196,8.599 -3.35453,10.1776 -4.8424,13.0703 -8.49513,16.5161 -1.58166,1.4921 -2.50241,2.0723 -5.88963,3.7112 -12.27724,5.9406 -25.2451,9.6747 -39.60134,11.4031 -4.20181,0.5059 -17.2342,0.7315 -21.43125,0.371 z m 48.94792,-58.173 c 7.74635,-1.9421 13.61846,-5.1508 18.66267,-10.1977 5.34602,-5.3489 8.10224,-10.8455 9.69054,-19.3255 0.47858,-2.5552 0.56088,-4.2751 0.67418,-14.0891 l 0.12905,-11.1786 -4.72249,0.01 c -5.99164,0.01 -16.6228,0.4299 -20.06833,0.7963 -11.24191,1.1953 -20.08626,4.0184 -27.36563,8.7351 -7.99979,5.1835 -12.22917,13.0106 -12.21687,22.609 0.009,7.3408 2.88629,13.2788 8.46929,17.481 3.58554,2.6987 7.36485,4.3883 12.13862,5.4265 3.26759,0.7107 11.30137,0.5658 14.60897,-0.2634 z m 215.10624,58.1878 c -13.14674,-1.0648 -25.22274,-3.5956 -34.13125,-7.153 -18.33017,-7.3198 -33.22899,-20.5866 -41.144,-36.6372 -3.88453,-7.8773 -5.31725,-13.0329 -6.72774,-24.2094 -0.67632,-5.359 -1.28238,-13.0006 -1.60528,-20.2406 -0.29179,-6.5423 -0.37053,-145.31386 -0.0908,-159.96354 l 0.17388,-9.10521 h 42.29174 42.29174 l 0.0369,11.50938 c 0.0203,6.33015 0.0634,37.52457 0.0959,69.32087 0.062,60.7939 0.14274,65.4572 1.33244,76.979 2.35371,22.7949 10.31728,34.8608 26.55435,40.2334 4.62687,1.5309 7.52482,1.9636 13.12314,1.9596 6.59222,0 11.67321,-1.0721 17.05967,-3.5837 13.29867,-6.2008 22.67167,-20.8422 25.81088,-40.3186 1.18635,-7.3604 1.17142,-6.304 1.17715,-83.2734 l 0.005,-72.95884 19.38073,0.003 c 23.90848,0.003 45.15527,0.39585 91.47969,1.69031 6.47566,0.18096 11.86326,0.28376 11.97236,0.22845 0.1092,-0.0553 0.1985,-14.67869 0.1985,-32.4964 v -32.39584 h 42.4656 42.4656 v 32.4776 32.4776 l 27.4505,-0.0738 27.45062,-0.0738 0.014,18.06551 c 0.01,9.93604 0.1011,21.89121 0.207,26.56701 l 0.1925,8.5015 -11.3195,0.2006 c -6.22575,0.1103 -18.67152,0.1165 -27.65742,0.014 l -16.3381,-0.1868 v 54.0587 c 0,56.7844 0.066,60.3944 1.2108,68.2139 1.1012,7.5247 3.1925,12.3784 6.9673,16.1703 2.2695,2.2797 4.7411,3.6845 8.8466,5.0281 5.2132,1.7062 6.9381,1.8722 20.87462,2.0088 l 12.6339,0.1239 -0.017,12.3454 c -0.019,14.2832 -0.3735,40.4725 -0.5499,40.6489 -0.1775,0.1776 -11.2625,1.6261 -17.18075,2.2451 -21.04117,2.2007 -39.22337,2.371 -56.99757,0.5338 -19.9393,-2.061 -34.6755,-7.5606 -43.8545,-16.3668 -9.1832,-8.8102 -13.6463,-18.981 -15.3973,-35.0886 -1.2716,-11.6981 -1.4502,-22.9082 -1.461,-91.7019 l -0.01,-58.0999 h -19.05002 -19.05 v 97.9196 l -10e-6,97.9197 h -42.46562 -42.46562 v -20.6094 -20.6094 l -0.88144,1.1625 c -1.54785,2.0415 -4.48368,6.5595 -7.97649,12.2751 -6.57621,10.7612 -10.57001,16.0748 -15.06749,20.0467 -2.74917,2.4278 -4.31167,3.3816 -8.82762,5.3885 -9.73076,4.3244 -20.16041,7.071 -32.06987,8.4456 -4.178,0.4822 -17.3143,0.7178 -21.43125,0.3844 z m 515.93752,-1.765 c -9.7761,-0.685 -16.1249,-1.6502 -23.1511,-3.5196 -9.2736,-2.4672 -15.0576,-5.5319 -20.7223,-10.9795 -7.6646,-7.371 -12.7012,-17.5843 -14.1751,-28.7448 -0.9623,-7.2871 -1.39,-80.0077 -1.2723,-216.33575 l 0.078,-90.55445 42.5197,0.0669 42.5197,0.067 0.1485,136.3927 c 0.1546,141.9175 0.124,138.3162 1.214,142.875 0.935,3.9104 3.5015,7.6342 6.0316,8.7513 2.5557,1.1285 7.9884,1.8352 17.2953,2.25 l 4.0518,0.1806 -0.083,28.5184 c -0.046,15.6851 -0.1491,28.5843 -0.2298,28.6649 -0.081,0.081 -2.1047,0.2713 -4.4979,0.4236 -2.3931,0.1523 -8.5779,0.5694 -13.7439,0.9269 -14.4054,0.9969 -19.0728,1.193 -27.2521,1.1447 -4.1473,-0.024 -8.0764,-0.082 -8.7312,-0.1279 z M 43.435294,662.52304 6.4597742,662.45504 V 500.39864 338.34232 H 44.251574 c 20.78549,0 45.104,-0.0711 54.041136,-0.15794 l 16.24935,-0.15794 4.34609,7.897 c 2.39035,4.34335 7.73427,14.02872 11.87537,21.52304 4.14111,7.49433 16.2798,29.58042 26.97488,49.08021 33.28109,60.67975 45.47524,82.75755 59.4044,107.55315 7.25099,12.9076 19.7653,34.925 19.8508,34.925 0.0296,0 -0.14524,-3.3635 -0.38858,-7.4745 -2.24431,-37.9143 -2.56937,-60.8266 -2.40515,-169.53177 l 0.0661,-43.78854 h 42.59791 42.59791 l -1e-5,162.18961 -10e-6,162.1895 -55.44955,-0.031 -55.44956,-0.031 -2.92415,-5.261 c -8.34086,-15.0067 -29.31694,-53.0117 -54.4528,-98.659 -26.3043,-47.7692 -45.76532,-83.0272 -55.31552,-100.2165 -2.24529,-4.0413 -4.12117,-7.165 -4.16862,-6.9416 -0.0474,0.2235 0.0999,3.7085 0.32737,7.7447 1.83194,32.5006 2.0823,50.5707 1.85663,134.0077 l -0.18803,69.5192 -6.643386,-0.065 c -3.65387,-0.036 -23.28238,-0.096 -43.61891,-0.1332 z m 976.018406,-50.9984 c -0.1,-28.0856 -0.3014,-84.5073 -0.4485,-125.3816 -0.1471,-40.87435 -0.2336,-74.3312 -0.1924,-74.34856 0.041,-0.0174 19.393,0.008 43.0037,0.056 l 42.9287,0.0875 v 125.32556 125.3256 h -42.5552 -42.5552 z m 36.079,-218.7011 c -11.1048,-1.42327 -21.7276,-6.51421 -27.3985,-13.13067 -7.622,-8.8929 -11.223,-20.94127 -9.8907,-33.09275 1.1083,-10.10862 5.002,-18.68083 11.324,-24.93038 6.4838,-6.40961 14.5917,-10.06173 25.5157,-11.49325 12.3783,-1.62211 25.5882,1.15923 34.8413,7.33583 2.6949,1.79895 7.2067,6.39347 9.1526,9.32062 12.2549,18.43422 8.3867,45.48578 -8.2556,57.73378 -5.3842,3.96253 -13.7571,7.10558 -21.704,8.14734 -3.243,0.4251 -10.6561,0.48485 -13.5848,0.10948 z M 674.79725,302.59301 c -10.63263,-1.21357 -21.38512,-5.72758 -29.80173,-12.51107 -2.86976,-2.31292 -7.27045,-6.97292 -9.44746,-10.00415 -2.11964,-2.95134 -5.16521,-8.94815 -6.2411,-12.28889 -2.97986,-9.25276 -2.64425,-20.28721 0.94583,-31.09732 6.08708,-18.3289 20.55358,-31.93162 37.26842,-35.04318 4.02118,-0.74857 13.41015,-0.69134 17.62539,0.10743 7.26197,1.37611 14.72625,4.12063 21.41119,7.87262 l 2.65937,1.49259 1.90619,-1.69685 c 7.22155,-6.4285 109.46485,-96.71662 111.04696,-98.06239 1.09132,-0.92829 2.36971,-2.16359 2.84086,-2.7451 2.04303,-2.52156 3.10251,-6.04125 3.51524,-11.677981 0.73998,-10.1059 1.19495,-12.79821 3.1617,-18.70963 6.04932,-18.18238 24.33276,-32.04068 44.26187,-33.54918 5.2999,-0.40117 10.4905,0.11744 15.6733,1.56597 2.4474,0.68401 8.8202,3.13801 10.972,4.22501 9.4418,4.76963 17.038,12.72306 22.1158,23.15581 3.4506,7.08973 5.9382,16.93831 5.9382,23.50973 0,1.76899 0.032,1.85795 0.9922,2.76561 4.1011,3.876401 25.3617,22.842331 47.9557,42.779841 21.70382,19.15188 38.00402,33.71849 49.26932,44.02915 l 1.5119,1.3838 1.9276,-1.67157 c 11.1869,-9.70061 23.1205,-15.13537 35.0671,-15.97007 5.4463,-0.38053 14.053,0.66193 19.0329,2.3053 8.2343,2.71736 14.9094,7.27388 23.798,16.2449 l 5.0619,5.10892 7.2412,-6.509 c 10.0777,-9.05868 33.8723,-30.20463 58.4381,-51.93307 27.1165,-23.98461 39.6445,-35.0955 40.5692,-35.980271 l 0.7494,-0.71708 -0.9129,-1.42831 c -1.6201,-2.53461 -3.6471,-6.85295 -4.7124,-10.03922 -1.8842,-5.63555 -2.6204,-10.29095 -2.6204,-16.57015 0,-17.20367 7.8954,-33.17808 21.0264,-42.541631 2.9036,-2.07051 9.4665,-5.60619 12.7653,-6.87719 5.2753,-2.03252 10.0835,-2.87557 16.3468,-2.86621 14.0292,0.0209 27.8743,6.07525 37.8586,16.55514 5.238,5.497971 10.3681,13.907021 12.5471,20.566641 1.8054,5.51783 2.3888,13.32127 1.4536,19.44224 -3.2863,21.50883 -20.6478,40.435121 -40.7468,44.419341 -1.1642,0.23077 -3.4263,0.54034 -5.0271,0.68792 -9.0696,0.83619 -16.1681,-0.45745 -27.7387,-5.05515 l -3.9263,-1.56014 -3.5948,3.11131 c -6.222,5.3851 -23.1477,20.28982 -39.7263,34.98277 -8.7912,7.79132 -22.9033,20.29775 -31.3603,27.79207 -15.5301,13.76235 -33.407,29.4835 -36.2052,31.8393 -0.8362,0.70395 -2.0569,2.03194 -2.7128,2.95107 -2.4878,3.48637 -3.5212,6.72809 -5.0189,15.74504 -0.5197,3.1287 -1.2339,6.78401 -1.5872,8.12291 -0.7569,2.86883 -2.9819,7.89197 -4.9086,11.08172 -8.33,13.79073 -24.7278,22.32196 -42.9256,22.33279 -10.8023,0.006 -20.2546,-2.75307 -28.763,-8.3971 -4.1009,-2.72032 -10.2355,-8.7901 -12.7776,-12.64253 -4.1917,-6.35229 -6.7866,-13.74973 -8.0256,-22.87904 -0.488,-3.59605 -0.6519,-13.21672 -0.293,-17.19791 l 0.2028,-2.24896 -8.4049,-7.56366 c -10.9153,-9.82287 -21.91922,-19.60809 -41.47872,-36.8848 -18.56,-16.39387 -32.7822,-29.0264 -41.1889,-36.58514 -3.3001,-2.96727 -6.0476,-5.41531 -6.1055,-5.44009 -0.058,-0.0248 -1.1082,1.20462 -2.334,2.73201 -2.6335,3.28112 -7.7624,8.50441 -10.5876,10.78242 -6.6344,5.34945 -13.8886,8.96176 -20.8387,10.37689 -3.8244,0.77869 -10.3291,1.14428 -14.1838,0.79718 -6.3629,-0.57296 -11.37467,-2.0245 -17.73758,-5.1373 -6.37831,-3.12035 -12.42864,-7.38793 -18.14651,-12.7996 l -2.53609,-2.40028 -6.59203,5.97538 c -20.95764,18.99715 -45.49667,40.75134 -91.82737,81.40625 l -15.64219,13.72592 1.18168,2.81053 c 1.335,3.17518 2.69824,7.89109 3.41349,11.80839 0.76272,4.17723 0.69963,13.67677 -0.12122,18.25423 -1.94915,10.86941 -6.64814,20.31951 -13.79538,27.74377 -8.57976,8.9123 -17.64981,13.53383 -28.88328,14.71711 -2.89959,0.30543 -7.47359,0.29394 -10.27505,-0.0258 z m 8.03191,-22.4946 c 4.5479,-0.77052 9.55096,-2.87934 13.13418,-5.53614 6.23764,-4.62492 9.60963,-10.08956 11.26405,-18.2545 0.64153,-3.16605 0.41515,-8.0301 -0.51995,-11.17198 -4.26844,-14.3417 -20.64714,-24.47804 -35.11723,-21.73311 -2.94959,0.55952 -8.13008,2.49483 -10.70884,4.00056 -4.11115,2.40049 -8.09118,7.19865 -10.01014,12.06779 -1.42831,3.62419 -1.79026,5.57254 -1.92615,10.36816 -0.11068,3.9064 -0.0521,4.86327 0.44523,7.27604 1.6168,7.84328 5.68306,14.00136 12.00434,18.17979 6.95728,4.59883 13.71003,6.11209 21.43451,4.80339 z m 394.65464,-30.23919 c 8.1848,-2.2934 15.3805,-7.97759 19.2844,-15.23357 2.5395,-4.71992 3.8637,-11.5397 3.2708,-16.84487 -1.0709,-9.58389 -7.4917,-18.31396 -16.9897,-23.1002 -4.9279,-2.48329 -8.8412,-3.33175 -14.3445,-3.11008 -4.3311,0.17446 -6.3336,0.70572 -10.6586,2.82779 -6.1408,3.01297 -10.2064,7.17853 -13.2149,13.53966 -2.3495,4.9676 -3.2074,9.32064 -2.985,15.14572 0.1682,4.40464 0.9053,7.64824 2.5222,11.09871 2.2549,4.81175 5.1512,8.04387 10.2704,11.46105 6.3136,4.21441 9.3326,5.1531 16.1073,5.0081 3.5951,-0.077 4.6109,-0.1964 6.7376,-0.79231 z M 885.74358,124.45088 c 7.9134,-2.01541 15.0412,-7.61962 19.0879,-15.0079 3.0205,-5.51451 4.2861,-12.921061 3.1928,-18.684421 -2.4911,-13.13218 -14.4123,-24.10685 -27.0095,-24.86509 -4.5217,-0.27216 -8.5255,0.70784 -14.27603,3.49437 -7.40227,3.5869 -13.2254,9.98083 -15.77378,17.31996 -2.70424,7.78804 -1.07291,17.304661 4.35676,25.415771 1.61885,2.41831 5.7986,6.65056 8.08795,8.18953 6.7911,4.56518 14.8171,6.05216 22.3339,4.13778 z M 1267.9931,99.119579 c 9.47,-1.35778 19.2263,-8.6164 23.5456,-17.51781 2.139,-4.40817 2.5192,-6.26679 2.4974,-12.20841 -0.017,-4.67278 -0.068,-5.19088 -0.7291,-7.35121 -2.5741,-8.41887 -8.2231,-14.93672 -16.4504,-18.98079 -6.284,-3.08886 -12.5937,-3.89119 -18.5736,-2.36179 -2.4287,0.62116 -8.6555,3.47074 -10.8695,4.97425 -5.4732,3.71674 -9.2051,9.2768 -10.9323,16.2876 -0.6881,2.79295 -0.9514,8.57338 -0.5238,11.4978 1.2389,8.47272 4.9058,14.83074 11.5424,20.01296 6.9062,5.39271 12.164,6.841631 20.4933,5.6474 z" id="path1"></path>
  </g>
</svg>
